REM DIRINDEX 1
REM DIRNAME cjc069
TITLE ""
FILE "Disk1Track33.mp3" MP3
  TRACK 01 AUDIO
    TITLE "1:cjc069_0226"
    INDEX 01 00:00:00
  TRACK 02 AUDIO
    TITLE "1:cjc069_0227"
    INDEX 01 00:23:59
  TRACK 03 AUDIO
    TITLE "1:cjc069_0228"
    INDEX 01 00:38:59
  TRACK 04 AUDIO
    TITLE "0:"
    INDEX 01 00:52:12
